<?xml version="1.0" encoding="UTF-8"?><svg xmlns="http://www.w3.org/2000/svg" viewBox="0 0 158.63 480.43"><defs><style>.d{stroke-width:3px;}.d,.e,.f,.g{stroke-miterlimit:10;}.d,.f{stroke:#ff0;}.d,.g{fill:none;}.h{font-family:Quicksand-SemiBold, Quicksand;font-size:12px;}.i{fill:#fff;}.j,.f{fill:#ff0;}.k{fill:#fdc5b1;}.l{fill:#c1272d;}.m{fill:#c69c6d;}.n{fill:#42210b;}.o{fill:#1b1464;}.e{fill:red;}.e,.f{stroke-width:4px;}.e,.g{stroke:red;}.g{stroke-width:8px;}</style></defs><g id="a"/><g id="b"><g id="c"><rect class="n" x="16.29" y="37.19" width="133.23" height="79.69" rx="39.85" ry="39.85"/><rect class="k" x="7.59" y="188.99" width="29.6" height="154.07" rx="14.8" ry="14.8"/><circle class="k" cx="125.99" cy="87.28" r="15.94"/><circle class="k" cx="37.19" cy="85.76" r="15.94"/><rect class="k" x="64.51" y="141.25" width="37.95" height="57.71" rx="18.97" ry="18.97"/><rect class="k" x="37.19" y="31.88" width="91.84" height="139.65" rx="45.92" ry="45.92"/><circle class="i" cx="59.2" cy="88.8" r="12.9"/><circle class="i" cx="107.77" cy="88.8" r="12.9"/><circle cx="59.58" cy="89.18" r="1.9"/><circle cx="108.15" cy="89.18" r="1.9"/><rect class="n" x="46.3" y="65.27" width="23.53" height="8.35" rx="4.17" ry="4.17"/><rect class="n" x="97.15" y="65.27" width="23.53" height="8.35" rx="4.17" ry="4.17"/><path class="l" d="M83.11,157.11h0c11.55,0,21.59-6.45,26.72-15.94H56.39c5.13,9.49,15.17,15.94,26.72,15.94Z"/><path class="i" d="M53.71,134.34c.62,2.41,1.53,4.69,2.68,6.83h53.44c1.16-2.14,2.06-4.43,2.68-6.83H53.71Z"/><rect class="n" x="53.13" y="125.99" width="29.6" height="6.07" rx="3.04" ry="3.04"/><rect class="n" x="77.42" y="125.99" width="36.43" height="6.07" rx="3.04" ry="3.04"/><rect class="m" x="75.52" y="93.96" width="15.18" height="23.08" rx="7.59" ry="7.59"/><rect class="k" x="75.52" y="90.92" width="15.18" height="23.08" rx="7.59" ry="7.59"/><rect class="o" x="31.12" y="181.4" width="103.98" height="161.66" rx="37.04" ry="37.04"/><rect x="31.12" y="313.46" width="103.98" height="37.19"/><rect x="31.12" y="343.06" width="44.02" height="137.38"/><rect x="91.08" y="343.06" width="44.02" height="137.38"/><path class="l" d="M120.6,464.49h0c-9.22,0-17.23,6.45-21.33,15.94h42.66c-4.1-9.49-12.11-15.94-21.33-15.94Z"/><path class="l" d="M46.3,464.49h0c-9.22,0-17.23,6.45-21.33,15.94h42.66c-4.1-9.49-12.11-15.94-21.33-15.94Z"/><rect class="n" x="0" y="0" width="105.5" height="54.65" rx="27.32" ry="27.32"/><ellipse class="n" cx="113.85" cy="36.81" rx="24.67" ry="30.36" transform="translate(33 125.02) rotate(-65.41)"/><path class="j" d="M127.71,24.19l-20.89,6.33-15.6-25.47-15.58,13.2L50.97,.68l1.27,26.9-.03-.02-.44,2.87h-.02l-1.37,9.97c25.79,.62,63.61,23.43,63.61,23.43l3.39-9.95,.08,.03,10.27-29.74Zm-65.13,8.57h0Z"/><rect class="k" x="128.28" y="185.46" width="29.6" height="107.5" rx="14.8" ry="14.8"/><rect class="k" x="99.07" y="242.15" width="29.6" height="88.98" rx="14.8" ry="14.8" transform="translate(350.46 88.76) rotate(71.76)"/><rect class="o" x="7.59" y="181.4" width="151.04" height="47.82" rx="19.5" ry="19.5"/><rect class="j" x="76.28" y="270.75" width="7" height="17" rx="2.02" ry="2.02" transform="translate(-83.41 39.01) rotate(-18.24)"/><path class="j" d="M81.97,273.79l-8.14,2.68c-3.51,1.16-7.32-.77-8.48-4.27l-6.75-20.49c-.36-1.08-.42-2.19-.24-3.24,.41-2.36,2.08-4.44,4.51-5.24l8.14-2.68c3.51-1.16,7.32,.77,8.48,4.27l6.75,20.49c1.16,3.51-.77,7.32-4.27,8.48Z"/><rect x="74.27" y="283.79" width="22" height="21" transform="translate(-87.84 41.48) rotate(-18.24)"/><ellipse class="d" cx="56.93" cy="256.25" rx="6" ry="5.5" transform="translate(-77.35 30.7) rotate(-18.24)"/><ellipse class="d" cx="83.21" cy="248.11" rx="6" ry="5.5" transform="translate(-73.49 38.52) rotate(-18.24)"/><text class="h" transform="translate(66.93 260.62) rotate(-18.24)"><tspan x="0" y="0">#1</tspan></text><polyline class="g" points="66.51 179.99 82.2 212.93 99.54 179.99"/><ellipse class="f" cx="82.54" cy="219.43" rx="7" ry="6.5"/><path class="e" d="M83.04,182.93h0c10.22,0,18.5-1.12,18.5-2.5h0c0-1.38-8.28-2.5-18.5-2.5h0c-10.22,0-18.5,1.12-18.5,2.5h0c0,1.38,8.28,2.5,18.5,2.5Z"/></g></g></svg>