<?xml version="1.0" encoding="UTF-8"?><svg xmlns="http://www.w3.org/2000/svg" viewBox="0 0 158.63 480.43"><defs><style>.d{fill:#fff;}.e{fill:#fdc5b1;}.f{fill:#c1272d;}.g{fill:#c69c6d;}.h{fill:#42210b;}.i{fill:#1b1464;}</style></defs><g id="a"/><g id="b"><g id="c"><rect class="h" x="16.29" y="37.19" width="133.23" height="79.69" rx="39.85" ry="39.85"/><rect class="e" x="7.59" y="188.99" width="29.6" height="154.07" rx="14.8" ry="14.8"/><rect class="e" x="127.51" y="188.99" width="29.6" height="154.07" rx="14.8" ry="14.8"/><circle class="e" cx="125.99" cy="87.28" r="15.94"/><circle class="e" cx="37.19" cy="85.76" r="15.94"/><rect class="e" x="64.51" y="141.25" width="37.95" height="57.71" rx="18.97" ry="18.97"/><rect class="e" x="37.19" y="31.88" width="91.84" height="139.65" rx="45.92" ry="45.92"/><circle class="d" cx="59.2" cy="88.8" r="12.9"/><circle class="d" cx="107.77" cy="88.8" r="12.9"/><circle cx="59.58" cy="89.18" r="1.9"/><circle cx="108.15" cy="89.18" r="1.9"/><rect class="h" x="46.3" y="65.27" width="23.53" height="8.35" rx="4.17" ry="4.17"/><rect class="h" x="97.15" y="65.27" width="23.53" height="8.35" rx="4.17" ry="4.17"/><path class="f" d="M83.11,157.11h0c11.55,0,21.59-6.45,26.72-15.94H56.39c5.13,9.49,15.17,15.94,26.72,15.94Z"/><path class="d" d="M53.71,134.34c.62,2.41,1.53,4.69,2.68,6.83h53.44c1.16-2.14,2.06-4.43,2.68-6.83H53.71Z"/><rect class="h" x="53.13" y="125.99" width="29.6" height="6.07" rx="3.04" ry="3.04"/><rect class="h" x="77.42" y="125.99" width="36.43" height="6.07" rx="3.04" ry="3.04"/><rect class="g" x="75.52" y="93.96" width="15.18" height="23.08" rx="7.59" ry="7.59"/><rect class="e" x="75.52" y="90.92" width="15.18" height="23.08" rx="7.59" ry="7.59"/><rect class="i" x="31.12" y="181.4" width="103.98" height="161.66" rx="37.04" ry="37.04"/><rect x="31.12" y="313.46" width="103.98" height="37.19"/><rect x="31.12" y="343.06" width="44.02" height="137.38"/><rect x="91.08" y="343.06" width="44.02" height="137.38"/><path class="f" d="M120.6,464.49h0c-9.22,0-17.23,6.45-21.33,15.94h42.66c-4.1-9.49-12.11-15.94-21.33-15.94Z"/><path class="f" d="M46.3,464.49h0c-9.22,0-17.23,6.45-21.33,15.94h42.66c-4.1-9.49-12.11-15.94-21.33-15.94Z"/><rect class="h" x="0" y="0" width="105.5" height="54.65" rx="27.32" ry="27.32"/><ellipse class="h" cx="113.85" cy="36.81" rx="24.67" ry="30.36" transform="translate(33 125.02) rotate(-65.41)"/><rect class="i" x="7.59" y="181.4" width="151.04" height="47.82" rx="19.5" ry="19.5"/></g></g></svg>