<?xml version="1.0" encoding="UTF-8"?><svg xmlns="http://www.w3.org/2000/svg" viewBox="0 0 158.63 480.43"><defs><style>.d{fill:#fff;}.e{fill:#fdc5b1;}.f{fill:#666;}.g{fill:#c1272d;}.h{fill:#c69c6d;}.i{fill:#42210b;}.j{fill:#1b1464;}.k{fill:#1a1a1a;}</style></defs><g id="a"/><g id="b"><g id="c"><rect class="i" x="16.29" y="37.19" width="133.23" height="79.69" rx="39.85" ry="39.85"/><rect class="e" x="7.59" y="188.99" width="29.6" height="154.07" rx="14.8" ry="14.8"/><rect class="e" x="127.51" y="188.99" width="29.6" height="107.5" rx="14.8" ry="14.8"/><circle class="e" cx="125.99" cy="87.28" r="15.94"/><circle class="e" cx="37.19" cy="85.76" r="15.94"/><rect class="e" x="64.51" y="141.25" width="37.95" height="57.71" rx="18.97" ry="18.97"/><rect class="e" x="37.19" y="31.88" width="91.84" height="139.65" rx="45.92" ry="45.92"/><circle class="d" cx="59.2" cy="88.8" r="12.9"/><circle class="d" cx="107.77" cy="88.8" r="12.9"/><circle cx="59.58" cy="89.18" r="1.9"/><circle cx="108.15" cy="89.18" r="1.9"/><rect class="i" x="102.15" y="65.27" width="23.53" height="8.35" rx="4.17" ry="4.17" transform="translate(39.23 -41.1) rotate(24.59)"/><rect class="i" x="53.13" y="125.99" width="29.6" height="6.07" rx="3.04" ry="3.04"/><rect class="i" x="77.42" y="125.99" width="36.43" height="6.07" rx="3.04" ry="3.04"/><rect class="h" x="75.52" y="93.96" width="15.18" height="23.08" rx="7.59" ry="7.59"/><rect class="e" x="75.52" y="90.92" width="15.18" height="23.08" rx="7.59" ry="7.59"/><rect class="j" x="31.12" y="181.4" width="103.98" height="161.66" rx="37.04" ry="37.04"/><rect x="31.12" y="313.46" width="103.98" height="37.19"/><rect x="31.12" y="343.06" width="44.02" height="137.38"/><rect x="91.08" y="343.06" width="44.02" height="137.38"/><path class="g" d="M120.6,464.49h0c-9.22,0-17.23,6.45-21.33,15.94h42.66c-4.1-9.49-12.11-15.94-21.33-15.94Z"/><path class="g" d="M46.3,464.49h0c-9.22,0-17.23,6.45-21.33,15.94h42.66c-4.1-9.49-12.11-15.94-21.33-15.94Z"/><rect class="i" x="0" y="0" width="105.5" height="54.65" rx="27.32" ry="27.32"/><ellipse class="i" cx="113.85" cy="36.81" rx="24.67" ry="30.36" transform="translate(33 125.02) rotate(-65.41)"/><rect class="j" x="7.59" y="181.4" width="151.04" height="47.82" rx="19.5" ry="19.5"/><rect class="i" x="40.72" y="65.76" width="23.53" height="8.35" rx="4.17" ry="4.17" transform="translate(-22.6 25.12) rotate(-22.28)"/><rect class="e" x="99.3" y="221.68" width="29.6" height="88.98" rx="14.8" ry="14.8" transform="translate(401.65 300.44) rotate(120)"/><rect x="52.99" y="208.45" width="62.47" height="25.9" rx="7.85" ry="7.85" transform="translate(290.98 105.8) rotate(81.62)"/><ellipse class="k" cx="79.97" cy="191.81" rx="18.22" ry="18.59" transform="translate(-103.97 95.11) rotate(-39.64)"/><path class="f" d="M95.46,202.05l-26.86,4.6,1.13,5.31,25.61-3.91"/><path class="g" d="M59.6,145.69c0,6.08,10.52,11,23.5,11s23.5-4.92,23.5-11c0-2.37-1.61-4.56-4.33-6.36H63.93c-2.73,1.8-4.33,3.99-4.33,6.36Z"/><path class="d" d="M63.93,139.33h38.33c-4.26-2.81-11.25-4.64-19.17-4.64s-14.91,1.83-19.17,4.64Z"/></g></g></svg>